General

Format                           : MPEG-4
Format profile                   : Base Media
Codec ID                         : isom
File size                        : 702 MiB
Duration                         : 2h 40mn
Overall bit rate                 : 610 Kbps


Video

Format                           : AVC
Duration                         : 2h 40mn
Bit rate mode                    : Variable
Bit rate                         : 542 Kbps
Maximum bit rate                 : 2 414 Kbps
Width                            : 608 pixels
Height                           : 288 pixels
Display aspect ratio             : 2.2:1
Frame rate mode                  : Constant
Frame rate                       : 29.970 fps
Color space                      : YUV
Chroma subsampling               : 4:2:0
Bit depth                        : 8 bits
Scan type                        : Progressive
Bits/(Pixel*Frame)               : 0.103
Stream size                      : 624 MiB (89%)
Writing library                  : x264 core 80 r1376M 3feaec2


Audio

Format                           : AAC
Duration                         : 2h 40mn
Bit rate mode                    : Variable
Bit rate                         : 64.0 Kbps
Maximum bit rate                 : 73.2 Kbps
Channel(s)                       : 2 channels
Channel positions                : Front: L R
Sampling rate                    : 48.0 KHz
Compression mode                 : Lossy
Stream size                      : 73.7 MiB (10%)


PLEASE SEEEEEEEEEEEDDDDDDDDDDDDDDDDDD......................

POST A COMMENT.....................